# xmcd CD database file
#
# Track frame offsets:
#	150
#	35017
#	64333
#	84029
#	117212
#	141056
#	171116
#	198739
#	229039
#
# Disc length: 3233 seconds
#
# Revision: 0
# Processed by: cddbd v1.5.2PL0 Copyright (c) Steve Scherf et al.
# Submitted via: CDex 1.51
#
DISCID=760c9f09
DTITLE=Tonu Naissoo trio - you stepped out of a dream
DYEAR=1900
DGENRE=Jazz
TTITLE0=I'VE GOT YOU UNDER MY SKIN
TTITLE1=MILESTONES
TTITLE2=ANGEL
TTITLE3=YOU STEPPED OUT OF A DREAM
TTITLE4=FLY FLY BUTTERFLY
TTITLE5=THE DOLPHIN
TTITLE6=LAY LADY LAY
TTITLE7=LOVER MAN
TTITLE8=DON'T SAY GOODBYE
EXTD=
EXTT0=
EXTT1=
EXTT2=
EXTT3=
EXTT4=
EXTT5=
EXTT6=
EXTT7=
EXTT8=
PLAYORDER=
